<svg width="61" height="37" viewBox="0 0 61 37" fill="none" xmlns="http://www.w3.org/2000/svg">
<path d="M6.388 29.132C5.068 29.132 4.156 28.868 3.652 28.34C3.148 27.836 2.884 27.176 2.86 26.36C2.86 25.664 2.992 24.836 3.256 23.876C3.544 22.892 3.832 21.956 4.12 21.068C4.696 19.364 5.296 17.684 5.92 16.028C6.544 14.372 7.168 12.776 7.792 11.24C8.44 9.704 9.052 8.24 9.628 6.848C10.228 5.456 10.78 4.172 11.284 2.996C9.652 3.02 8.236 3.068 7.036 3.14C5.86 3.212 4.78 3.308 3.796 3.428C2.812 3.524 1.792 3.668 0.736 3.86C0.856 2.852 1.324 2.084 2.14 1.556C2.98 1.004 4.096 0.619999 5.488 0.403999C6.88 0.187999 8.476 0.079999 10.276 0.079999C11.212 0.079999 12.088 0.103999 12.904 0.151998C13.744 0.175999 14.536 0.223999 15.28 0.295998C16.048 0.367999 16.792 0.439999 17.512 0.512C19.024 0.655999 20.224 0.751999 21.112 0.799998C22.024 0.847999 22.672 0.872 23.056 0.872C22.336 1.544 21.424 2.036 20.32 2.348C19.24 2.636 18.1 2.816 16.9 2.888C15.7 2.96 14.56 2.996 13.48 2.996C12.328 5.828 11.272 8.768 10.312 11.816C9.352 14.864 8.464 17.876 7.648 20.852C7.336 22.004 7.072 22.988 6.856 23.804C6.664 24.596 6.52 25.328 6.424 26C6.328 26.648 6.28 27.344 6.28 28.088C6.28 28.208 6.28 28.34 6.28 28.484C6.304 28.652 6.34 28.868 6.388 29.132ZM16.4191 27.08C15.3631 27.08 14.5711 26.768 14.0431 26.144C13.5151 25.52 13.2511 24.764 13.2511 23.876C13.2511 23.324 13.3471 22.628 13.5391 21.788C13.7311 20.948 13.9951 20.072 14.3311 19.16C14.6911 18.224 15.0991 17.348 15.5551 16.532C16.0111 15.716 16.5031 15.056 17.0311 14.552C17.5591 14.024 18.0871 13.76 18.6151 13.76C18.9031 13.76 19.1551 13.856 19.3711 14.048C19.5871 14.216 19.6951 14.468 19.6951 14.804C19.6951 15.116 19.5031 15.584 19.1191 16.208C18.7591 16.832 18.3271 17.552 17.8231 18.368C17.3431 19.184 16.9111 20.036 16.5271 20.924C16.1671 21.788 15.9871 22.616 15.9871 23.408C15.9871 24.176 16.1191 24.692 16.3831 24.956C16.6711 25.196 17.0791 25.316 17.6071 25.316C18.4231 25.316 19.3111 24.908 20.2711 24.092C21.2311 23.276 22.2271 21.848 23.2591 19.808L23.7991 20.384C22.9591 22.496 21.8911 24.14 20.5951 25.316C19.2991 26.492 17.9071 27.08 16.4191 27.08ZM20.6671 10.844C20.2111 10.844 19.7911 10.736 19.4071 10.52C19.0471 10.28 18.8671 9.92 18.8671 9.44C18.8671 8.864 19.1791 8.372 19.8031 7.964C20.4271 7.556 21.0751 7.352 21.7471 7.352C22.1791 7.352 22.5391 7.448 22.8271 7.64C23.1391 7.832 23.2951 8.18 23.2951 8.684C23.2951 9.188 23.0191 9.68 22.4671 10.16C21.9151 10.616 21.3151 10.844 20.6671 10.844ZM25.4241 27.08C24.2961 27.08 23.5041 26.708 23.0481 25.964C22.6161 25.196 22.4001 24.296 22.4001 23.264C22.4001 22.088 22.6161 20.708 23.0481 19.124C23.4801 17.54 24.0441 15.884 24.7401 14.156C25.4601 12.404 26.2401 10.7 27.0801 9.044C27.9441 7.364 28.8081 5.852 29.6721 4.508C30.5361 3.164 31.3281 2.096 32.0481 1.304C32.7921 0.487999 33.3921 0.079999 33.8481 0.079999C34.1601 0.079999 34.4241 0.247999 34.6401 0.583999C34.8561 0.895999 35.0241 1.28 35.1441 1.736C35.2881 2.168 35.3601 2.576 35.3601 2.96C35.3601 3.608 35.1921 4.46 34.8561 5.516C34.5441 6.548 34.0881 7.688 33.4881 8.936C32.9121 10.184 32.2161 11.468 31.4001 12.788C30.6081 14.084 29.7201 15.32 28.7361 16.496C27.7761 17.672 26.7441 18.692 25.6401 19.556C25.5441 20.156 25.4481 20.756 25.3521 21.356C25.2801 21.932 25.2441 22.46 25.2441 22.94C25.2441 23.804 25.3881 24.44 25.6761 24.848C25.9641 25.232 26.3361 25.424 26.7921 25.424C27.3921 25.424 28.0041 25.148 28.6281 24.596C29.2761 24.02 29.8881 23.3 30.4641 22.436C31.0641 21.548 31.5801 20.636 32.0121 19.7L32.8761 20.168C31.8441 22.304 30.6921 23.996 29.4201 25.244C28.1481 26.468 26.8161 27.08 25.4241 27.08ZM26.2881 17.324C27.1041 16.436 27.8721 15.476 28.5921 14.444C29.3361 13.388 30.0081 12.32 30.6081 11.24C31.2321 10.16 31.7721 9.116 32.2281 8.108C32.6841 7.1 33.0321 6.2 33.2721 5.408C33.5361 4.592 33.6801 3.944 33.7041 3.464C33.7041 3.44 33.7041 3.428 33.7041 3.428C33.7041 3.404 33.7041 3.38 33.7041 3.356C33.5121 3.356 33.2001 3.632 32.7681 4.184C32.3601 4.712 31.8681 5.444 31.2921 6.38C30.7161 7.316 30.1161 8.384 29.4921 9.584C28.8921 10.784 28.3041 12.056 27.7281 13.4C27.1761 14.72 26.6961 16.028 26.2881 17.324ZM33.5283 27.152C32.4483 27.152 31.7043 26.792 31.2963 26.072C30.9123 25.376 30.7203 24.608 30.7203 23.768C30.7203 23 30.8403 22.22 31.0803 21.428C31.3203 20.612 31.6443 19.856 32.0523 19.16C32.4843 18.464 32.9523 17.912 33.4563 17.504C33.9843 17.072 34.5123 16.856 35.0403 16.856C35.2083 16.856 35.4003 16.892 35.6163 16.964C35.8563 17.012 36.0243 17.096 36.1203 17.216C35.8323 17.576 35.5323 18.02 35.2203 18.548C34.9323 19.076 34.6563 19.64 34.3923 20.24C34.1523 20.816 33.9603 21.404 33.8163 22.004C33.6723 22.604 33.6003 23.156 33.6003 23.66C33.6003 24.14 33.6843 24.536 33.8523 24.848C34.0443 25.16 34.3683 25.316 34.8243 25.316C35.2803 25.316 35.8203 25.064 36.4443 24.56C37.0923 24.032 37.7043 23.432 38.2803 22.76C37.5123 22.064 36.9603 21.308 36.6243 20.492C36.2883 19.652 36.1203 18.644 36.1203 17.468C36.1203 16.964 36.2403 16.388 36.4803 15.74C36.7443 15.092 37.1523 14.528 37.7043 14.048C38.2803 13.568 39.0483 13.328 40.0083 13.328C41.0403 13.328 41.7603 13.616 42.1683 14.192C42.6003 14.768 42.8163 15.452 42.8163 16.244C42.8163 17.132 42.5763 18.128 42.0963 19.232C41.6403 20.336 41.0883 21.38 40.4403 22.364C40.7283 22.508 41.0643 22.58 41.4483 22.58C41.8083 22.58 42.2403 22.496 42.7443 22.328C43.2483 22.16 43.7403 21.884 44.2203 21.5C44.7003 21.092 45.0843 20.552 45.3723 19.88L46.0203 20.348C45.4923 21.572 44.7843 22.472 43.8963 23.048C43.0323 23.6 42.1803 23.876 41.3403 23.876C41.0283 23.876 40.7163 23.852 40.4043 23.804C40.0923 23.732 39.8043 23.648 39.5403 23.552C38.7243 24.512 37.7883 25.352 36.7323 26.072C35.6763 26.792 34.6083 27.152 33.5283 27.152ZM39.2163 21.608C39.7923 20.768 40.2843 19.868 40.6923 18.908C41.1003 17.948 41.3043 17.06 41.3043 16.244C41.3043 15.692 41.2203 15.296 41.0523 15.056C40.8843 14.792 40.6323 14.66 40.2963 14.66C39.8403 14.66 39.3723 14.984 38.8923 15.632C38.4123 16.28 38.1723 17.096 38.1723 18.08C38.1723 18.584 38.2563 19.196 38.4243 19.916C38.6163 20.636 38.8803 21.2 39.2163 21.608ZM46.3469 36.08C45.7469 36.08 45.1829 35.9 44.6549 35.54C44.1509 35.18 43.8989 34.592 43.8989 33.776C43.8989 33.008 44.1149 32.312 44.5469 31.688C45.0029 31.088 45.5909 30.524 46.3109 29.996C47.0549 29.492 47.8469 29.024 48.6869 28.592C49.5269 28.16 50.3429 27.752 51.1349 27.368C51.3989 26.72 51.6509 26.024 51.8909 25.28C52.1309 24.536 52.3589 23.732 52.5749 22.868C51.7349 23.924 50.8469 24.8 49.9109 25.496C48.9989 26.192 48.0629 26.54 47.1029 26.54C46.1429 26.54 45.3749 26.204 44.7989 25.532C44.2469 24.86 43.9709 23.972 43.9709 22.868C43.9709 21.596 44.2829 20.408 44.9069 19.304C45.5549 18.176 46.3829 17.18 47.3909 16.316C48.3989 15.428 49.4789 14.744 50.6309 14.264C51.7829 13.76 52.8869 13.508 53.9429 13.508C54.7109 13.508 55.2869 13.652 55.6709 13.94C56.0549 14.204 56.2469 14.516 56.2469 14.876C56.2469 15.164 56.1629 15.392 55.9949 15.56C55.8269 15.728 55.7189 15.824 55.6709 15.848C55.4309 15.584 55.1789 15.416 54.9149 15.344C54.6749 15.248 54.3869 15.2 54.0509 15.2C53.1149 15.2 52.2149 15.464 51.3509 15.992C50.4869 16.52 49.7189 17.204 49.0469 18.044C48.3989 18.86 47.8829 19.712 47.4989 20.6C47.1149 21.488 46.9229 22.292 46.9229 23.012C46.9229 23.492 47.0309 23.864 47.2469 24.128C47.4629 24.368 47.7269 24.488 48.0389 24.488C48.7109 24.488 49.5269 24.056 50.4869 23.192C51.4469 22.304 52.3709 21.236 53.2589 19.988C53.3069 19.796 53.3429 19.628 53.3669 19.484C53.4149 19.316 53.4509 19.16 53.4749 19.016C53.7149 18.056 54.0029 17.348 54.3389 16.892C54.6749 16.436 55.1429 16.208 55.7429 16.208C55.8629 16.208 56.0069 16.22 56.1749 16.244C56.3669 16.268 56.5709 16.304 56.7869 16.352C56.7869 16.784 56.6669 17.492 56.4269 18.476C56.1869 19.46 55.8629 20.612 55.4549 21.932C55.0469 23.228 54.5909 24.56 54.0869 25.928C54.8309 25.616 55.5869 25.184 56.3549 24.632C57.1229 24.056 57.8309 23.372 58.4789 22.58C59.1269 21.764 59.6189 20.864 59.9549 19.88L60.6029 20.528C60.2189 21.632 59.6189 22.64 58.8029 23.552C58.0109 24.464 57.1469 25.256 56.2109 25.928C55.2749 26.576 54.4109 27.08 53.6189 27.44C52.9709 29.024 52.2629 30.464 51.4949 31.76C50.7509 33.08 49.9469 34.124 49.0829 34.892C48.2429 35.684 47.3309 36.08 46.3469 36.08ZM46.2029 34.424C46.6349 34.424 47.2229 34.016 47.9669 33.2C48.7349 32.384 49.5629 31.004 50.4509 29.06C49.5629 29.492 48.7469 29.936 48.0029 30.392C47.2589 30.848 46.6589 31.328 46.2029 31.832C45.7469 32.336 45.5189 32.864 45.5189 33.416C45.5189 33.728 45.5789 33.968 45.6989 34.136C45.8429 34.328 46.0109 34.424 46.2029 34.424Z" fill="black"/>
</svg>
